<svg width="64" height="64" viewBox="0 0 64 64" fill="none" xmlns="http://www.w3.org/2000/svg">
<path fill-rule="evenodd" clip-rule="evenodd" d="M32 60C53.6731 60 64 37.2548 64 32C64 26.7452 53.6731 4 32 4C10.3269 4 0 26.7452 0 32C0 37.2548 10.3269 60 32 60ZM20.1646 33.9917C19.9826 32.9022 20.8955 32.0001 22.0001 32.0001L30.0001 32.0001C31.1046 32.0001 32.0001 31.1046 32.0001 30.0001V22.0001C32.0001 20.8955 32.9022 19.9826 33.9917 20.1646C39.6712 21.1133 44.0001 26.0512 44.0001 32.0001C44.0001 38.6275 38.6275 44.0001 32.0001 44.0001C26.0512 44.0001 21.1133 39.6712 20.1646 33.9917Z" fill="#376CFB"/>
</svg>
